<?xml version="1.0" standalone="no"?>
<!DOCTYPE svg PUBLIC "-//W3C//DTD SVG 20010904//EN"
 "http://www.w3.org/TR/2001/REC-SVG-20010904/DTD/svg10.dtd">
<svg version="1.0" xmlns="http://www.w3.org/2000/svg"
 width="582.103394pt" height="676.405028pt" viewBox="0 0 582.103394 676.405028"
 preserveAspectRatio="xMidYMid meet">
<metadata>
Created by potrace 1.16, written by Peter Selinger 2001-2019
</metadata>
<g transform="translate(-360.401071,997.569795) scale(0.100000,-0.100000)"
fill="currentColor" stroke="none">
<path d="M4995 9974 c-253 -24 -453 -96 -640 -229 -231 -164 -385 -386 -457
-660 -22 -83 -27 -225 -17 -485 3 -100 2 -110 -34 -213 -44 -129 -126 -297
-202 -413 -62 -95 -58 -99 43 -42 86 49 149 103 312 268 l155 157 96 32 c200
66 304 159 410 363 34 66 82 147 106 179 208 277 583 275 790 -4 93 -125 133
-249 140 -432 8 -192 -21 -338 -106 -536 -103 -239 -260 -459 -620 -873 -86
-98 -225 -258 -310 -355 -387 -444 -594 -736 -756 -1066 -173 -353 -235 -619
-222 -945 21 -505 270 -981 667 -1277 111 -83 224 -150 334 -197 l78 -34 87
76 c178 156 378 276 564 336 182 59 278 71 577 71 189 0 335 -6 465 -18 214
-20 545 -24 679 -7 649 81 1168 417 1541 1000 59 93 181 326 230 440 162 379
287 878 339 1355 8 71 13 131 11 133 -1 2 -37 -54 -80 -124 -372 -606 -859
-1029 -1462 -1269 -274 -110 -458 -156 -963 -240 -274 -46 -424 -78 -579 -121
-558 -157 -940 -448 -1202 -919 -105 -189 -167 -371 -194 -575 l-13 -95 -1
137 c-2 281 80 551 246 803 196 298 467 519 808 658 221 91 421 143 890 232
330 64 498 112 720 208 500 215 903 532 1223 960 110 147 179 260 272 442 196
388 323 760 415 1220 66 326 112 663 80 580 -65 -166 -178 -376 -283 -525 -87
-123 -344 -382 -484 -486 -309 -230 -638 -394 -1298 -648 -124 -48 -319 -123
-435 -168 -653 -251 -1082 -477 -1435 -756 -120 -95 -355 -330 -441 -442 -276
-358 -429 -719 -480 -1130 -22 -180 0 -487 50 -702 24 -101 86 -289 113 -341
11 -22 17 -41 15 -44 -8 -7 -166 188 -234 290 -237 354 -353 791 -314 1177 34
329 183 734 396 1070 141 223 374 529 685 900 584 696 827 1085 955 1526 76
261 85 573 25 815 -119 470 -499 843 -942 923 -89 16 -247 26 -313 20z m4120
-3831 c-175 -663 -435 -1194 -770 -1573 -260 -294 -562 -488 -918 -591 -250
-72 -462 -88 -889 -64 -533 30 -807 0 -1100 -121 -277 -113 -489 -282 -618
-492 -18 -29 -34 -51 -37 -48 -9 9 85 192 136 264 210 295 521 472 926 528
103 14 183 15 570 9 373 -5 469 -4 561 9 457 62 831 260 1195 633 248 254 448
537 657 928 75 141 255 511 300 618 24 56 20 23 -13 -100z"/>
</g>
</svg>
